# Blender v3.6.23 OBJ File: ''
# www.blender.org
mtllib bunny.mtl
o bunny
v -37.173897 33.375950 -17.034580
v -38.081104 33.135681 -20.697674
v -38.569275 32.299484 -15.305576
v -20.230923 21.921497 -5.356569
v -36.722450 29.520187 -22.725227
v 2.421493 12.519976 -13.022259
v 12.566895 8.500945 -18.346958
v 1.509259 13.553996 -24.992397
v -25.423786 19.113581 -2.462265
v -24.003332 20.398136 6.810455
v -27.275644 21.617298 -5.226540
v 3.183270 10.818868 -10.684271
v 2.796944 11.674805 -11.822521
v -20.161301 11.739674 -9.099802
v -20.625702 10.225391 -9.784960
v -22.445532 17.632002 -7.080191
v -19.017910 18.377508 10.748917
v -22.131351 23.195784 -1.479149
v -9.771652 9.202241 -23.501957
v -9.175895 12.222971 -9.990955
v -6.759847 11.555322 -9.833477
v 14.422262 -17.758211 -37.869793
v 2.309937 -23.681793 -30.491962
v 11.749670 -9.868308 -35.418446
v -16.007900 4.195678 8.096518
v -5.707932 -3.890682 4.975029
v -5.923728 3.051666 2.916268
v -5.891338 2.084589 3.491803
v 16.402668 2.034597 -18.802853
v 16.004526 -0.941461 -15.084671
v 15.492363 -1.713233 -11.687834
v -25.709440 -7.989265 -9.901987
v -23.620371 -10.931808 -9.588346
v -21.076036 -10.580406 2.914957
v -20.243090 -23.990108 -12.828648
v -18.632296 -21.249140 -13.970760
v -19.363525 -23.973722 -13.767317
v -7.250010 7.737711 -0.303036
v -16.930157 23.344755 -3.028360
v -15.226152 23.578047 -4.130350
v -14.225048 23.055782 -3.993015
v -27.528624 19.122612 -8.713203
v -2.292244 -24.224085 0.697119
v -9.172716 -19.068836 0.000528
v -10.122335 -24.312916 5.738593
v 7.291893 1.930458 -8.314787
v -12.633008 34.989922 -19.478115
v 14.024927 -23.917553 -16.985306
v 16.497034 -20.645828 -31.922752
v 18.045338 -8.927945 -21.305649
v -13.255409 23.716587 -8.483955
v -14.174376 -24.205425 -0.493092
v -10.743482 -24.266754 5.420979
v -14.991776 21.762131 -13.597834
v -10.236759 28.126022 -23.983906
v -14.181499 18.412588 -6.840364
v 8.523697 -1.794106 -3.229990
v 10.593668 -24.028397 -10.635038
v -21.776459 -2.040103 -16.282963
v -15.929601 5.478323 -20.153984
v -19.093796 -5.069750 -20.713116
v -36.671036 23.935137 -18.603821
v -9.821941 25.114393 -16.398422
v -13.121187 36.068680 -24.102673
v -12.188640 31.460115 -23.732719
v -11.451485 30.096169 -24.532234
v -10.330446 22.356903 1.962427
v -6.788417 8.638747 9.997823
v 14.151720 -11.775673 -38.903904
v -13.442385 20.238935 -9.005610
v -18.953102 -14.664629 -7.227331
v 1.287558 6.485009 -33.539108
v -26.793589 18.831350 -7.237167
v -14.087858 35.195648 -26.145546
v 16.666178 -9.987613 -29.178108
v -16.322823 10.219300 14.781278
v -25.418739 5.169857 0.748999
v -14.706030 6.534662 14.058800
v -12.787844 21.443577 -10.876656
v -22.640089 -22.637724 -7.224962
v -19.399117 -19.184250 -9.314920
v -13.086626 20.865908 -9.857405
v 8.939734 -24.085768 -7.348238
v -12.853310 30.025688 -27.607738
v -17.343008 -0.768174 -23.042019
v 10.402187 -24.025862 -10.018789
v -23.182234 4.640519 4.846611
v -21.695026 0.338020 7.517517
v -16.681417 13.898663 13.383120
v -1.933534 -19.760040 -35.031342
v -0.069284 -20.904013 -33.644737
v -2.326680 -19.146347 -35.377171
v -4.477823 -23.631071 -33.397846
v 5.019215 -7.847332 -37.279728
v -2.737146 -17.316784 -36.609276
v -4.438126 -16.625586 -36.713478
v -1.809058 -8.822544 -37.689636
v -17.323605 -18.803871 -15.100979
v -18.107792 -20.228365 -14.348713
v -0.865290 -17.221300 -36.873756
v -11.884817 -16.927067 -4.566582
v -19.784294 -20.132160 -9.998819
v 18.271049 -9.871727 -35.688866
v -14.978531 13.081928 -9.375116
v -29.886379 24.674822 -6.368706
v -7.903730 11.944044 -9.980991
v 5.216280 0.630705 -5.640863
v -36.442833 29.443411 -12.143606
v -21.287231 -24.185646 -1.626240
v -19.129797 -24.197943 -0.921804
v -17.595652 -24.200975 -0.748093
v -11.411374 8.365730 -22.733044
v -6.690623 11.092230 -24.506519
v -18.792229 -12.490183 -25.170242
v -17.447151 -16.242712 -23.018719
v -6.737784 6.833438 -30.065449
v -18.845213 -2.197388 -27.250107
v -16.862278 -18.010086 -21.534428
v -28.057194 22.726147 -5.130249
v -21.635017 -23.902817 -17.829529
v -19.758518 -23.968407 -14.071850
v 9.678534 -24.061728 -8.674902
v -23.704304 8.397167 -6.969191
v 0.163290 5.432168 -33.777824
v -15.248799 9.050269 -16.593090
v -3.418972 2.418750 -34.508518
v 11.941473 -23.996264 -12.471716
v -5.021069 2.519397 -33.090622
v -16.360237 8.564726 -16.466122
v -18.838333 -1.629725 -25.906414
v -18.566380 7.365854 -15.881386
v -23.723558 -0.795653 -14.339031
v -4.072701 4.485551 -32.252785
v -20.975529 -2.577819 -17.363930
v -7.048070 -9.775948 -36.210335
v -5.911765 -23.630325 -32.960297
v -9.267092 -19.531616 -32.485512
v -18.366539 -23.786789 -24.400482
v -10.585420 -11.993382 -34.040535
v -8.170658 -10.926256 -35.113998
v -10.076246 -18.890217 -32.566914
v -17.288269 -14.574327 -28.575413
v -12.777658 -23.718897 -27.776180
v -8.899426 -23.673742 -30.953224
v -21.779493 -24.038851 -10.036144
v 13.644384 -23.948606 -15.206200
v 11.012032 -24.015589 -11.149237
v -7.180001 -23.653351 -32.121380
v -16.866621 -23.913233 -16.966747
v -5.333948 -23.635599 -33.138470
v 13.950991 -23.931818 -16.168060
vn -0.5447 0.8348 0.0801
vn 0.7199 0.5251 -0.4539
vn 0.3903 0.9194 0.0497
vn 0.6420 0.7381 -0.2074
vn -0.8791 -0.4350 0.1949
vn -0.8716 -0.4854 -0.0692
vn 0.5129 0.7607 0.3979
vn 0.1450 0.3706 -0.9174
vn -0.5335 0.7317 0.4242
vn -0.3749 0.9081 -0.1865
vn 0.2420 0.9360 0.2554
vn 0.5073 0.7712 0.3845
vn -0.5452 0.0748 -0.8350
vn 0.4642 0.2651 0.8451
vn -0.9996 -0.0287 0.0081
vn -0.9834 -0.0750 -0.1653
vn -0.8110 -0.5565 0.1807
vn -0.7234 0.1437 -0.6753
vn 0.3031 -0.4798 -0.8233
vn -0.2971 -0.7311 -0.6142
vn -0.3103 -0.9450 0.1031
vn -0.0726 0.9932 0.0913
vn 0.4119 0.6377 0.6509
vn 0.6548 0.2009 0.7286
vn 0.2940 0.7422 0.6022
vn 0.9675 -0.2277 0.1102
vn 0.9571 0.1736 0.2322
vn 0.4931 0.5635 0.6628
vn 0.7201 -0.0249 0.6934
vn 0.1388 -0.8710 -0.4713
vn 0.6274 0.4579 0.6298
vn 0.7049 -0.0808 -0.7047
vn 0.5978 0.4527 0.6616
vn -0.6759 0.6199 0.3986
vn 0.1769 -0.8732 -0.4541
vn 0.7650 -0.1383 0.6290
vn 0.6506 -0.1848 0.7366
vn -0.7400 0.2550 -0.6224
vn 0.3643 -0.5508 -0.7510
vn 0.3894 0.8632 0.3214
vn 0.9794 0.1935 -0.0582
vn -0.8580 -0.5080 0.0755
vn 0.9746 0.2150 -0.0625
vn 0.4233 -0.9040 0.0601
vn 0.8762 -0.0990 0.4717
vn 0.9417 -0.0155 -0.3361
vn 0.6086 0.5864 0.5345
vn 0.6990 0.3716 0.6109
vn 0.4205 0.5916 0.6879
vn -0.2755 -0.2420 0.9303
vn 0.9279 -0.3728 0.0023
vn 0.9059 0.3487 0.2404
vn 0.9081 -0.1816 0.3773
vn 0.9779 0.1053 0.1806
vn 0.4799 0.8371 0.2626
vn -0.5017 -0.7073 -0.4980
vn 0.6670 0.4911 -0.5603
vn 0.9962 0.0257 0.0827
vn -0.5576 -0.8220 0.1155
vn 0.8623 0.4979 0.0921
vn 0.6972 0.4711 -0.5403
vn 0.7687 0.5600 0.3090
vn -0.6863 -0.4179 0.5953
vn 0.3848 -0.8505 -0.3587
vn 0.1088 0.8203 0.5614
vn 0.9627 0.1886 -0.1940
vn -0.7792 0.5153 -0.3569
vn 0.9634 -0.1335 0.2324
vn 0.8710 0.1384 -0.4713
vn 0.4732 -0.8187 -0.3253
vn -0.8016 0.5896 0.0992
vn 0.7012 -0.6816 -0.2089
vn 0.9053 -0.3307 0.2665
vn -0.1331 0.9843 0.1161
vn 0.0003 0.9998 0.0176
vn -0.9280 -0.1220 -0.3521
vn -0.9415 0.2914 -0.1695
vn 0.7190 0.4630 -0.5183
vn -0.1113 0.9930 -0.0387
vn 0.8781 0.0065 -0.4784
vn -0.9505 -0.1650 0.2635
vn -0.8517 0.1115 0.5120
vn -0.5445 0.1191 0.8303
vn 0.2569 -0.4907 -0.8326
vn 0.0243 -0.0904 -0.9956
vn 0.3169 -0.5802 -0.7503
vn 0.8395 0.3239 -0.4364
vn 0.3823 -0.5310 -0.7563
vn -0.1159 0.4361 0.8924
vn 0.8991 -0.3847 0.2089
vn -0.2912 0.8428 0.4527
vn -0.8732 -0.1784 0.4536
vn -0.1421 0.0464 -0.9888
vn 0.3194 -0.4740 -0.8205
vn 0.4457 -0.6410 -0.6248
vn 0.0806 -0.1504 -0.9853
vn -0.1831 -0.9399 -0.2881
vn -0.9349 -0.0397 -0.3526
vn -0.6167 0.5232 0.5882
vn 0.2131 -0.1754 -0.9611
vn 0.8118 0.3108 -0.4944
vn 0.9878 -0.1537 0.0256
vn 0.9027 0.0671 -0.4250
vn 0.6712 -0.3406 -0.6583
vn 0.3827 0.9238 -0.0105
vn -0.0608 -0.9533 -0.2959
vn -0.1362 0.9194 -0.3689
vn -0.1332 0.9457 0.2966
vn 0.7474 0.6153 -0.2508
vn 0.0816 0.9342 0.3473
vn -0.3391 0.9384 -0.0669
vn -0.3414 0.6005 0.7231
vn 0.0013 0.9998 0.0181
vn -0.5482 -0.1615 0.8206
vn -0.0199 0.8712 -0.4905
vn -0.2656 0.7331 0.6261
vn 0.5593 0.8290 0.0017
vn 0.1750 0.9063 0.3848
vn 0.4747 0.8547 -0.2101
vn 0.8049 0.2528 -0.5368
vn 0.1043 0.8043 0.5849
vn 0.1953 0.9042 0.3798
vn -0.5746 0.7313 0.3676
vn 0.2556 0.8929 0.3708
vn -0.1482 -0.7009 -0.6977
vn 0.1003 0.9218 0.3744
vn 0.4681 0.5335 0.7045
vn 0.5936 0.6125 -0.5220
vn 0.5143 0.5434 0.6634
vn -0.7395 0.4450 0.5051
vn -0.1167 0.6967 0.7078
vn -0.5289 -0.7259 -0.4397
vn 0.3901 0.8598 0.3296
vn 0.4517 0.5108 0.7315
vn -0.1967 -0.8131 -0.5479
vn 0.0825 -0.2657 0.9605
vn -0.4625 0.5813 0.6694
vn 0.0000 0.9998 0.0175
vn -0.0000 0.9998 0.0174
vn -0.0652 0.9027 0.4253
vn -0.4269 -0.3564 0.8311
vn 0.0445 -0.3859 0.9215
vn 0.4514 0.0232 0.8920
vn 0.5669 -0.6676 0.4826
vn -0.9420 -0.2049 -0.2659
vn -0.6897 -0.7034 -0.1715
vn -0.7516 -0.4886 0.4432
vn -0.9834 -0.1196 0.1367
vn -0.9472 -0.1925 0.2564
vn -0.2648 0.7666 -0.5850
vn -0.8800 0.4462 0.1626
vn 0.9186 0.3837 0.0949
vn -0.8148 0.0361 0.5785
vn -0.9105 -0.3973 -0.1143
vn -0.7429 -0.1868 0.6428
vn -0.7488 -0.3421 0.5676
vn 0.4221 -0.2858 -0.8603
vn -0.7526 0.6546 0.0716
vn -0.8768 0.4808 -0.0035
vn -0.9897 -0.1397 -0.0298
vn -0.7478 -0.5583 0.3594
vn -0.8039 0.5798 0.1326
vn -0.5998 0.5261 0.6029
vn -0.8406 0.2610 0.4746
vn -0.8103 0.5179 0.2743
vn 0.7804 0.5720 -0.2526
vn 0.4092 0.8793 0.2438
vn -0.5638 0.1799 0.8060
vn -0.9768 0.1473 -0.1554
vn -0.1997 0.7346 -0.6485
vn -0.9313 -0.2165 0.2929
vn -0.2760 0.9405 -0.1981
vn -0.0330 0.2678 -0.9629
vn 0.6195 0.2780 -0.7342
vn -0.9886 0.0335 0.1468
vn -0.4168 0.8453 0.3344
vn -0.1285 -0.0866 0.9879
vn -0.0002 0.9998 0.0173
vn -0.4592 0.6835 -0.5674
vn 0.0648 -0.8638 -0.4996
vn -0.4057 0.9117 -0.0649
vn -0.1479 0.6413 0.7529
vn -0.9195 0.2359 -0.3143
vn 0.1778 0.2239 -0.9583
vn -0.5115 0.6686 -0.5397
vn -0.0087 0.3767 -0.9263
vn -0.5664 0.6565 -0.4982
vn -0.2118 -0.8999 0.3812
vn -0.0031 0.3232 -0.9463
vn -0.4825 0.7962 -0.3650
vn 0.7330 -0.4540 0.5066
vn -0.6264 0.4926 -0.6042
vn -0.7274 0.4302 -0.5347
vn -0.6135 0.5410 -0.5753
vn -0.1617 0.4434 -0.8816
vn -0.2348 0.7908 -0.5653
vn -0.7900 0.4137 -0.4526
vn -0.3554 0.4377 -0.8259
vn -0.5174 0.7639 -0.3858
vn 0.0515 0.6193 0.7835
vn -0.7127 0.6627 0.2298
vn 0.0658 0.8357 -0.5452
vn 0.7797 -0.5425 0.3127
vn -0.4165 0.8382 -0.3520
vn 0.2793 -0.7842 -0.5541
vn -0.3139 0.9419 -0.1194
vn -0.8479 -0.1273 -0.5147
vn -0.7760 -0.1618 -0.6096
vn 0.4787 0.8743 -0.0802
vn -0.9704 0.1523 -0.1874
vn -0.8418 -0.0097 -0.5398
vn 0.1079 0.4026 0.9090
vn -0.7179 0.1688 -0.6753
vn 0.1394 0.5524 0.8218
vn -0.2664 -0.0308 -0.9634
vn -0.8921 0.3399 -0.2977
vn -0.3019 0.2193 -0.9278
vn 0.6039 -0.4386 0.6656
vn -0.6504 0.5456 -0.5285
vn -0.6490 0.1570 -0.7444
vn 0.2613 -0.4823 0.8361
vn -0.2810 -0.2715 -0.9205
vn -0.9696 -0.0553 -0.2385
vn -0.3679 -0.1958 -0.9090
vn -0.8188 0.4117 -0.4000
vn -0.2726 -0.6189 -0.7367
vn -0.5429 -0.2597 -0.7986
vn -0.4668 -0.1135 -0.8770
vn 0.0303 0.6739 0.7382
vn -0.5895 0.0797 -0.8038
vn -0.6579 0.1296 -0.7419
vn -0.7235 -0.5429 -0.4264
vn -0.5756 -0.7634 -0.2932
vn -0.9787 -0.1720 -0.1121
vn -0.6414 -0.0991 -0.7607
vn -0.4735 0.2584 -0.8420
vn 0.6433 0.3863 -0.6610
vn 0.5903 0.7738 0.2298
vn -0.6101 -0.7260 -0.3173
vn -0.5481 -0.2599 -0.7950
vn -0.0277 0.9994 -0.0196
vn -0.4703 0.1994 -0.8597
vn -0.5557 0.3996 -0.7291
vn -0.1283 -0.5466 -0.8275
vn -0.6327 0.0033 -0.7744
vn -0.4556 0.4880 -0.7445
vn -0.9287 -0.0780 -0.3624
vn -0.7235 0.3441 -0.5985
vn -0.8160 -0.5768 0.0377
vn -0.8999 -0.4108 -0.1460
vn -0.6916 0.4261 -0.5832
vn -0.8573 0.0423 -0.5131
vn -0.9989 -0.0141 -0.0442
vn 0.0001 0.9998 0.0175
vn -0.4041 -0.8181 0.4092
vn -0.6404 -0.7337 0.2271
vn 0.3731 -0.8885 0.2671
vn -0.0924 0.9945 -0.0503
vn -0.6638 -0.7315 0.1556
vn 0.0091 -0.3133 0.9496
vn -0.3853 -0.8811 0.2742
vn -0.5855 -0.8100 -0.0322
vn -0.2302 0.9180 -0.3228
vn -0.0045 -0.9998 -0.0197
vn -0.0170 0.9996 0.0204
vn 0.0176 -0.9996 -0.0206
vn -0.8374 0.3023 -0.4554
vn 0.0000 -0.9998 -0.0175
vn -0.2748 0.3368 -0.9006
vn 0.0000 -0.9998 -0.0174
vn 0.0017 -0.9998 -0.0173
vn -0.0141 -0.9998 -0.0161
vn 0.0003 -0.9998 -0.0176
vn 0.0001 -0.9998 -0.0176
vn 0.2106 -0.9775 0.0141
vn 0.0002 -0.9998 -0.0176
vn -0.8370 0.3423 -0.4268
vn -0.0768 -0.9970 0.0053
vn -0.0001 -0.9998 -0.0175
vn -0.0127 -0.9994 -0.0335
vn -0.0002 -0.9998 -0.0175
vn -0.0003 -0.9998 -0.0176
vn -0.0236 -0.9987 -0.0441
vn 0.0000 -0.9998 -0.0176
vn -0.0011 -0.9998 -0.0187
vn -0.2494 -0.9365 -0.2464
vn -0.0003 -0.9998 -0.0173
vn 0.0061 -0.9998 -0.0183
vn 0.0259 -0.9996 0.0121
vn 0.0071 -0.9999 -0.0096
usemtl Default_OBJ
s off
f 1//1 2//1 3//1
f 4//2 5//2 2//2
f 6//3 7//3 8//3
f 1//4 4//4 2//4
f 9//5 10//5 11//5
f 6//6 12//6 13//6
f 13//7 12//7 7//7
f 14//8 15//8 16//8
f 11//9 17//9 18//9
f 8//10 19//10 20//10
f 20//11 21//11 8//11
f 13//12 7//12 6//12
f 22//13 23//13 24//13
f 25//14 26//14 27//14
f 27//15 26//15 28//15
f 29//16 30//16 31//16
f 32//17 33//17 34//17
f 35//18 36//18 37//18
f 28//19 38//19 27//19
f 39//20 40//20 41//20
f 42//21 16//21 9//21
f 21//22 6//22 8//22
f 43//23 44//23 45//23
f 46//24 28//24 26//24
f 47//25 39//25 41//25
f 48//26 49//26 50//26
f 47//27 41//27 51//27
f 12//28 38//28 28//28
f 46//29 26//29 43//29
f 22//30 49//30 23//30
f 12//31 46//31 7//31
f 4//32 16//32 5//32
f 28//33 46//33 12//33
f 52//34 53//34 44//34
f 54//35 55//35 56//35
f 31//36 57//36 58//36
f 58//37 57//37 43//37
f 59//38 60//38 61//38
f 16//39 62//39 5//39
f 55//40 51//40 63//40
f 64//41 47//41 65//41
f 55//42 65//42 66//42
f 67//43 68//43 38//43
f 68//44 25//44 38//44
f 58//45 48//45 50//45
f 69//46 49//46 22//46
f 46//47 30//47 29//47
f 46//48 29//48 7//48
f 27//49 38//49 25//49
f 43//50 26//50 44//50
f 55//51 70//51 56//51
f 65//52 51//52 66//52
f 50//53 31//53 58//53
f 29//54 31//54 50//54
f 46//55 31//55 30//55
f 32//56 61//56 71//56
f 72//57 7//57 24//57
f 65//58 47//58 51//58
f 62//59 42//59 73//59
f 55//60 74//60 65//60
f 7//61 75//61 24//61
f 66//62 51//62 55//62
f 76//63 77//63 78//63
f 79//64 55//64 63//64
f 12//65 6//65 21//65
f 29//66 50//66 75//66
f 36//67 80//67 81//67
f 41//68 56//68 79//68
f 74//69 64//69 65//69
f 79//70 82//70 55//70
f 79//71 70//71 82//71
f 82//72 70//72 55//72
f 63//73 41//73 79//73
f 51//74 41//74 63//74
f 58//75 43//75 83//75
f 4//76 74//76 84//76
f 60//77 85//77 61//77
f 7//78 29//78 75//78
f 86//79 58//79 83//79
f 77//80 87//80 88//80
f 88//81 87//81 34//81
f 76//82 89//82 77//82
f 90//83 91//83 92//83
f 92//84 91//84 93//84
f 94//85 95//85 96//85
f 91//86 23//86 93//86
f 55//87 84//87 74//87
f 24//88 23//88 91//88
f 97//89 24//89 94//89
f 98//90 99//90 36//90
f 84//91 54//91 56//91
f 77//92 34//92 87//92
f 94//93 100//93 95//93
f 24//94 91//94 90//94
f 24//95 90//95 100//95
f 97//96 94//96 96//96
f 62//97 16//97 42//97
f 56//98 70//98 79//98
f 101//99 102//99 52//99
f 94//100 24//100 100//100
f 41//101 67//101 56//101
f 103//102 50//102 49//102
f 67//103 104//103 56//103
f 103//104 49//104 69//104
f 17//105 11//105 10//105
f 40//106 39//106 18//106
f 39//107 4//107 18//107
f 17//108 67//108 40//108
f 42//109 9//109 73//109
f 18//110 17//110 40//110
f 75//111 50//111 103//111
f 105//112 18//112 1//112
f 24//113 75//113 103//113
f 105//114 11//114 18//114
f 103//115 69//115 24//115
f 44//116 53//116 45//116
f 18//117 4//117 1//117
f 38//118 20//118 104//118
f 67//119 41//119 40//119
f 67//120 38//120 104//120
f 105//121 1//121 3//121
f 106//122 20//122 38//122
f 39//123 47//123 4//123
f 106//124 38//124 21//124
f 106//125 21//125 20//125
f 38//126 12//126 21//126
f 68//127 67//127 17//127
f 8//128 7//128 72//128
f 46//129 107//129 31//129
f 57//130 46//130 43//130
f 3//131 108//131 105//131
f 4//132 84//132 56//132
f 31//133 107//133 57//133
f 17//134 76//134 68//134
f 57//135 107//135 46//135
f 88//136 26//136 25//136
f 77//137 88//137 25//137
f 109//138 110//138 111//138
f 52//139 109//139 111//139
f 52//140 102//140 109//140
f 71//141 102//141 101//141
f 26//142 88//142 34//142
f 68//143 76//143 78//143
f 112//144 19//144 113//144
f 2//145 5//145 62//145
f 108//146 3//146 2//146
f 108//147 62//147 11//147
f 108//148 2//148 62//148
f 61//149 114//149 115//149
f 8//150 116//150 113//150
f 85//151 117//151 61//151
f 115//152 114//152 118//152
f 11//153 62//153 9//153
f 115//154 118//154 98//154
f 89//155 10//155 77//155
f 105//156 108//156 119//156
f 17//157 89//157 76//157
f 118//158 120//158 99//158
f 118//159 99//159 98//159
f 61//160 115//160 98//160
f 119//161 108//161 11//161
f 64//162 74//162 4//162
f 120//139 121//139 37//139
f 101//163 52//163 44//163
f 120//164 37//164 36//164
f 99//165 120//165 36//165
f 105//166 119//166 11//166
f 86//167 83//167 122//167
f 17//168 10//168 89//168
f 123//169 32//169 77//169
f 8//170 124//170 116//170
f 32//171 34//171 77//171
f 19//172 125//172 20//172
f 72//173 97//173 126//173
f 102//174 71//174 81//174
f 10//175 9//175 77//175
f 80//176 109//176 102//176
f 72//177 126//177 124//177
f 48//178 58//178 127//178
f 128//179 124//179 126//179
f 54//180 84//180 55//180
f 125//181 129//181 20//181
f 8//182 113//182 19//182
f 98//183 81//183 71//183
f 24//184 97//184 72//184
f 124//185 8//185 72//185
f 16//186 4//186 56//186
f 112//187 113//187 116//187
f 85//188 130//188 117//188
f 56//189 14//189 16//189
f 19//190 131//190 125//190
f 14//191 123//191 15//191
f 60//192 131//192 19//192
f 132//193 123//193 14//193
f 85//194 133//194 128//194
f 14//195 56//195 104//195
f 104//196 131//196 14//196
f 132//197 14//197 131//197
f 128//198 116//198 124//198
f 129//199 131//199 104//199
f 112//200 60//200 19//200
f 47//201 64//201 4//201
f 20//202 129//202 104//202
f 81//203 80//203 102//203
f 126//204 117//204 130//204
f 131//205 129//205 125//205
f 85//206 126//206 130//206
f 69//207 22//207 24//207
f 132//208 134//208 32//208
f 134//209 132//209 59//209
f 32//210 123//210 132//210
f 16//211 15//211 9//211
f 95//212 100//212 96//212
f 123//213 9//213 15//213
f 92//214 96//214 90//214
f 135//215 97//215 96//215
f 81//216 98//216 36//216
f 126//217 97//217 135//217
f 61//218 134//218 59//218
f 112//219 116//219 60//219
f 128//220 126//220 85//220
f 128//221 133//221 116//221
f 136//222 92//222 93//222
f 9//223 123//223 77//223
f 136//224 137//224 92//224
f 118//225 138//225 120//225
f 137//226 96//226 92//226
f 139//227 96//227 137//227
f 139//228 135//228 96//228
f 140//229 135//229 139//229
f 116//230 133//230 85//230
f 60//231 59//231 132//231
f 118//232 137//232 136//232
f 118//233 141//233 137//233
f 61//234 98//234 71//234
f 117//235 135//235 140//235
f 126//236 135//236 117//236
f 71//237 33//237 32//237
f 142//238 137//238 141//238
f 142//239 141//239 118//239
f 139//240 137//240 142//240
f 143//241 136//241 144//241
f 117//242 140//242 139//242
f 118//243 136//243 143//243
f 96//244 100//244 90//244
f 142//245 117//245 139//245
f 118//246 143//246 138//246
f 117//247 142//247 114//247
f 132//248 131//248 60//248
f 109//249 80//249 145//249
f 142//250 118//250 114//250
f 116//251 85//251 60//251
f 32//252 134//252 61//252
f 117//253 114//253 61//253
f 146//254 48//254 127//254
f 25//255 78//255 77//255
f 62//256 73//256 9//256
f 78//257 25//257 68//257
f 58//258 147//258 127//258
f 71//259 34//259 33//259
f 44//260 26//260 34//260
f 101//261 34//261 71//261
f 34//262 101//262 44//262
f 144//263 136//263 148//263
f 144//264 149//264 143//264
f 53//265 138//265 149//265
f 52//266 138//266 53//266
f 36//267 35//267 145//267
f 52//268 35//268 37//268
f 93//269 150//269 136//269
f 43//270 144//270 148//270
f 146//138 151//138 48//138
f 149//271 138//271 143//271
f 23//270 43//270 93//270
f 150//272 43//272 136//272
f 52//273 37//273 138//273
f 138//274 37//274 121//274
f 145//268 110//268 109//268
f 23//275 49//275 43//275
f 138//276 121//276 120//276
f 36//277 145//277 80//277
f 53//278 149//278 45//278
f 110//268 145//268 111//268
f 43//279 48//279 151//279
f 43//270 150//270 93//270
f 86//280 122//280 43//280
f 43//281 151//281 146//281
f 43//282 146//282 127//282
f 147//283 58//283 43//283
f 149//284 43//284 45//284
f 111//268 35//268 52//268
f 111//268 145//268 35//268
f 122//285 83//285 43//285
f 48//286 43//286 49//286
f 43//287 149//287 144//287
f 136//288 43//288 148//288
f 58//289 86//289 43//289
f 127//290 147//290 43//290
